# xmcd
#
# Track frame offsets:
#	150
#	9556
#	24075
#	37986
#	52024
#	64425
#	78045
#	94314
#	106133
#	120052
#	133090
#	145884
#	154714
#	164818
#	175659
#	188365
#	198878
#	212328
#	227964
#
# Disc length: 3178 seconds
#
# Revision: 1
# Processed by: cddbd v1.5.2PL0 Copyright (c) Steve Scherf et al.
# Submitted via: audiograbber 1.83.01
#
DISCID=ed0c6813
DTITLE=Various Artist - Negro Spirituals and Gospel Songs Vol. 2
DYEAR=1999
DGENRE=Gospel
TTITLE0=Rock My Soul
TTITLE1=I'm Free At Last
TTITLE2=This Train
TTITLE3=I'm Bound For Higher Ground
TTITLE4=Gospel Train
TTITLE5=Sweepin' Thru The Gate
TTITLE6=I'll Never Turn back
TTITLE7=I'll Never Turn back
TTITLE8=God Shall Wipe All Tears Away
TTITLE9=Woke Up This Morning
TTITLE10=I Looked Down The Line
TTITLE11=When The Saints Go Marching In
TTITLE12=Saints Go Marching In
TTITLE13=Swing Low, Sweet Chariot
TTITLE14=Just A Closer Walk With Thee
TTITLE15=John The Revelator
TTITLE16=Stand By Me
TTITLE17=Wouldn't Mind Dying If Dying Is All
TTITLE18=When God Dips His Pen Of Love
EXTD=
EXTT0=
EXTT1=
EXTT2=
EXTT3=
EXTT4=
EXTT5=
EXTT6=
EXTT7=
EXTT8=
EXTT9=
EXTT10=
EXTT11=
EXTT12=
EXTT13=
EXTT14=
EXTT15=
EXTT16=
EXTT17=
EXTT18=
PLAYORDER=
